<svg width="18" height="18" viewBox="0 0 18 18" fill="none" xmlns="http://www.w3.org/2000/svg">
<path d="M4.2 3.99066H4V4.19066V5.96843V6.16843H4.2H13.8H14V5.96843V4.19066V3.99066H13.8H4.2ZM4.2 7.54621H4V7.74621V9.52399V9.72399H4.2H13.8H14V9.52399V7.74621V7.54621H13.8H4.2ZM4.2 11.1018H4V11.3018V13.0795V13.2795H4.2H9H9.2V13.0795V11.3018V11.1018H9H4.2ZM15.4 0.435101H2.6C1.58784 0.435101 0.8 1.34232 0.8 2.41288V14.8573C0.8 15.9279 1.58784 16.8351 2.6 16.8351H15.4C16.4122 16.8351 17.2 15.9279 17.2 14.8573V2.41288C17.2 1.34232 16.4122 0.435101 15.4 0.435101ZM2.8 14.6573V2.61288H15.2L15.2016 14.6573H2.8Z" fill="#E73A3A" stroke="#E73A3A" stroke-width="0.4"/>
</svg>
