<svg width="18" height="18" viewBox="0 0 18 18" fill="none" xmlns="http://www.w3.org/2000/svg">
<path d="M8.8 0.635101V6.65732H7.2V0.635101V0.435101H7H5H4.8V0.635101V6.65732H3.2V0.635101V0.435101H3H1H0.8V0.635101V7.74621C0.8 9.34839 2.25834 10.6129 4 10.6129H4.8V16.6351V16.8351H5H7H7.2V16.6351V10.6129H8C9.74166 10.6129 11.2 9.34839 11.2 7.74621V0.635101V0.435101H11H9H8.8V0.635101ZM12.8 10.4129V10.6129H13H14.8V16.6351V16.8351H15H17H17.2V16.6351V1.52399C17.2 0.900483 16.6407 0.435101 16 0.435101H15C13.681 0.435101 12.8 1.70357 12.8 3.30177V10.4129Z" fill="#E73A3A" stroke="#E73A3A" stroke-width="0.4"/>
</svg>
